<svg id="SvgjsSvg1089" width="288" height="288" xmlns="http://www.w3.org/2000/svg" version="1.1" xmlns:xlink="http://www.w3.org/1999/xlink" xmlns:svgjs="http://svgjs.com/svgjs"><defs id="SvgjsDefs1090"></defs><g id="SvgjsG1091"><svg xmlns="http://www.w3.org/2000/svg" fill="none" viewBox="0 0 24 24" width="288" height="288"><path fill="#ffffff" fill-rule="evenodd" d="M11.134 1.75c1.32 0 2.239-.001 3.04.405.803.406 1.345 1.147 2.125 2.212l2.71 3.696c.513.698.868 1.182 1.055 1.752.187.57.186 1.171.186 2.037v3.703c0 1.367 0 2.47-.116 3.337-.122.9-.38 1.658-.982 2.26-.602.602-1.36.86-2.26.982-.867.116-1.97.116-3.337.116h-3.11c-1.367 0-2.47 0-3.337-.116-.9-.122-1.658-.38-2.26-.982-.602-.602-.86-1.36-.981-2.26-.117-.867-.117-1.97-.117-3.337v-7.11c0-1.367 0-2.47.117-3.337.12-.9.38-1.658.981-2.26.602-.602 1.36-.86 2.26-.981.867-.117 1.97-.117 3.337-.117h.69Zm-.174 1.5c.54 0 .957.002 1.29.014v.29c0 1.368 0 2.47.117 3.338.12.9.38 1.658.981 2.26.602.602 1.36.86 2.26.982.799.107 1.798.115 3.02.116l.01.032c.103.315.112.66.112 1.682V15.5c0 1.435-.002 2.436-.103 3.192-.099.734-.28 1.122-.556 1.399-.277.277-.665.457-1.4.556-.754.101-1.756.103-3.191.103h-3c-1.435 0-2.437-.002-3.192-.103-.734-.099-1.122-.28-1.399-.556-.277-.277-.457-.665-.556-1.4-.101-.755-.103-1.756-.103-3.191v-7c0-1.435.002-2.437.103-3.192.099-.734.28-1.122.556-1.399.277-.277.665-.457 1.4-.556.754-.101 1.756-.103 3.191-.103h.46Zm4.233 2.145 2.457 3.35c-.753-.008-1.35-.032-1.842-.098-.734-.099-1.122-.28-1.399-.556-.277-.277-.457-.665-.556-1.4-.098-.727-.103-1.684-.103-3.039.34.261.699.728 1.443 1.743ZM7.25 13a.75.75 0 0 1 .75-.75h5a.75.75 0 0 1 0 1.5H8a.75.75 0 0 1-.75-.75Zm0 4a.75.75 0 0 1 .75-.75h8a.75.75 0 0 1 0 1.5H8a.75.75 0 0 1-.75-.75Z" clip-rule="evenodd" class="color292D32 svgShape"></path></svg></g></svg>