<svg id="SvgjsSvg1070" width="288" height="288" xmlns="http://www.w3.org/2000/svg" version="1.1" xmlns:xlink="http://www.w3.org/1999/xlink" xmlns:svgjs="http://svgjs.com/svgjs"><defs id="SvgjsDefs1071"></defs><g id="SvgjsG1072"><svg xmlns="http://www.w3.org/2000/svg" viewBox="0 0 32 32" width="288" height="288"><path d="M29,21H28V8a3,3,0,0,0-3-3H7A3,3,0,0,0,4,8V21H3a1,1,0,0,0-1,1v2a3,3,0,0,0,3,3H27a3,3,0,0,0,3-3V22A1,1,0,0,0,29,21ZM6,8A1,1,0,0,1,7,7H25a1,1,0,0,1,1,1V21H6ZM28,24a1,1,0,0,1-1,1H5a1,1,0,0,1-1-1V23H28Z" data-name="93  Laptop, Computer, Device" fill="#ffffff" class="color000 svgShape"></path></svg></g></svg>