<svg id="SvgjsSvg1047" width="288" height="288" xmlns="http://www.w3.org/2000/svg" version="1.1" xmlns:xlink="http://www.w3.org/1999/xlink" xmlns:svgjs="http://svgjs.com/svgjs"><defs id="SvgjsDefs1048"></defs><g id="SvgjsG1049"><svg xmlns="http://www.w3.org/2000/svg" enable-background="new 0 0 24 24" viewBox="0 0 24 24" width="288" height="288"><path d="M4.8194,14.54c-0.0156,0.7461,0.2432,1.4576,0.7553,1.9697l1.9155,1.915c0.5005,0.501,1.1909,0.7666,1.9097,0.7666
			c0.0211,0,0.0424-0.0043,0.0635-0.0048l1.3994,2.5546c0.1514,0.2764,0.4238,0.4648,0.7354,0.5098
			c0.0474,0.0068,0.0947,0.0098,0.1416,0.0098c0.2632,0,0.5181-0.1045,0.707-0.293l3.7646-3.7646
			c0.1685-0.168,0.271-0.3916,0.29-0.6289L16.736,14.6c0.0562-0.0554,0.1141-0.1089,0.1698-0.1644l-0.1445-0.1564l0.0032-0.041
			l0.1691,0.1691c0.709-0.708,1.3867-1.4897,2.0181-2.3281c1.062-1.4258,1.6919-3.0527,1.8218-4.7041l0.0684-0.8657
			c0.0752-0.958-0.2349-1.8374-0.8745-2.4766c-0.6392-0.6401-1.5205-0.9487-2.4766-0.8745L16.625,3.2266
			c-1.6514,0.1299-3.2783,0.7598-4.7104,1.8267c-0.9089,0.6882-1.7386,1.4339-2.4971,2.2094L6.4258,7.4985
			c-0.2373,0.019-0.46,0.1216-0.6284,0.29l-3.7646,3.7646c-0.2227,0.2227-0.3276,0.5371-0.2827,0.8486
			c0.0444,0.3115,0.2329,0.584,0.5093,0.7358L4.8194,14.54z M14.5366,17.0498l-2.5605,2.5605l-0.6006-1.0957l1.4502-0.875
			c0.5725-0.3466,1.1306-0.7286,1.675-1.1341c0.0271-0.0201,0.0562-0.0361,0.0833-0.0563L14.5366,17.0498z M10.583,8.9165
			c0.752-0.7993,1.606-1.563,2.5322-2.2637c1.1235-0.8369,2.3916-1.332,3.667-1.4321l0.8657-0.0684
			c0.0396-0.0034,0.0791-0.0049,0.1177-0.0049c0.3159,0,0.5928,0.1045,0.7876,0.2993c0.2188,0.2188,0.3232,0.54,0.2944,0.9053
			l-0.0684,0.8657c-0.1001,1.2754-0.5952,2.5435-1.4287,3.6626c-0.5718,0.7593-1.188,1.4697-1.8311,2.1123
			c0,0.0005-0.0283,0.0288-0.0283,0.0288c-0.1304,0.1299-0.2607,0.2607-0.4077,0.3955c-1.0249,0.9639-2.1328,1.8086-3.2925,2.5107
			l-1.7935,1.082c-0.1226,0.0762-0.208,0.1084-0.2852,0.1299c-0.3218,0.0977-0.6309,0.0479-0.8081-0.1289l-1.9155-1.915
			c-0.1777-0.1777-0.2271-0.4873-0.1201-0.8379c0.0137-0.0488,0.0454-0.1328,0.1265-0.2646L8.0718,12.21
			C8.7734,11.0513,9.6182,9.9429,10.583,8.9165z M6.9507,9.4634L7.5513,9.416C7.5294,9.4451,7.5123,9.4765,7.4906,9.5057
			c-0.4047,0.5438-0.7852,1.1-1.1302,1.6701l-0.875,1.4487l-1.0952-0.6001L6.9507,9.4634z" fill="#ffffff" class="color000 svgShape"></path></svg></g></svg>